<?xml version="1.0" encoding="UTF-8" standalone="no"?><!DOCTYPE svg PUBLIC "-//W3C//DTD SVG 1.1//EN" "http://www.w3.org/Graphics/SVG/1.1/DTD/svg11.dtd"><svg width="100%" height="100%" viewBox="0 0 42 42" version="1.1" xmlns="http://www.w3.org/2000/svg" xmlns:xlink="http://www.w3.org/1999/xlink" xml:space="preserve" xmlns:serif="http://www.serif.com/" style="fill-rule:evenodd;clip-rule:evenodd;stroke-linecap:round;stroke-linejoin:round;stroke-miterlimit:1.5;"><g><g><path d="M21.751,8.804c-1.194,-0.545 -2.916,-0.485 -3.845,0.135l-11.928,7.963c-0.928,0.62 -0.713,1.566 0.481,2.111l17.336,7.923c1.194,0.545 2.916,0.485 3.845,-0.135l11.928,-7.963c0.928,-0.62 0.713,-1.566 -0.48,-2.112l-17.337,-7.922Z" style="fill:#00e0d2;"/></g><path d="M32.233,33.461c-0.187,-0.008 -0.375,-0.011 -0.565,-0.011c-2.788,-0 -5.371,0.853 -7.483,2.303c-0.816,0.588 -1.937,0.502 -2.655,-0.203c-2.321,-2.166 -5.483,-3.497 -8.966,-3.497c-0.636,-0 -1.26,0.044 -1.871,0.13c-0.369,0.052 -0.74,-0.072 -1.002,-0.336c-0.263,-0.265 -0.384,-0.637 -0.329,-1.005c0.598,-3.325 2.552,-6.206 5.298,-8.081l9.135,4.175c1.194,0.545 2.916,0.485 3.845,-0.135l3.771,-2.518c1.695,1.694 2.898,3.848 3.383,6.249c-1.219,0.135 -2.227,1.33 -2.561,2.929Z" style="fill:#00e0d2;"/><path d="M35.026,14.788l-0,15.731" style="fill:none;stroke:#1a1a1a;stroke-width:2px;"/><g><path d="M11.17,17.837l9.135,4.175c1.194,0.545 2.916,0.485 3.845,-0.135l3.771,-2.518c2.242,2.24 3.622,5.286 3.622,8.641c0,0.317 -0.012,0.632 -0.036,0.943c-1.062,-0.272 -2.178,-0.417 -3.329,-0.417c-3.446,-0 -6.579,1.303 -8.896,3.426c-2.364,-2.934 -6.059,-4.823 -10.208,-4.823c-1.161,-0 -2.286,0.148 -3.357,0.425c0.147,-4.011 2.267,-7.541 5.453,-9.717Z" style="fill:none;stroke:#1a1a1a;stroke-width:2px;"/><path d="M18.261,3.88c-1.194,-0.545 -2.916,-0.485 -3.845,0.135l-11.928,7.963c-0.928,0.62 -0.713,1.566 0.48,2.111l17.337,7.923c1.194,0.545 2.916,0.485 3.845,-0.135l11.928,-7.963c0.928,-0.62 0.713,-1.566 -0.481,-2.112l-17.336,-7.922Z" style="fill:none;stroke:#1a1a1a;stroke-width:2px;"/><path d="M37.546,36.664c0.255,-0.623 0.389,-1.329 0.389,-2.049c0,-2.261 -1.303,-4.096 -2.909,-4.096c-1.606,-0 -2.91,1.835 -2.91,4.096c-0,0.72 0.134,1.426 0.39,2.049l5.04,-0Z" style="fill:none;stroke:#1a1a1a;stroke-width:2px;"/></g></g><rect x="0" y="0" width="42" height="42" style="fill:none;"/></svg>