<?xml version="1.0" encoding="UTF-8" standalone="no"?><!DOCTYPE svg PUBLIC "-//W3C//DTD SVG 1.1//EN" "http://www.w3.org/Graphics/SVG/1.1/DTD/svg11.dtd"><svg width="100%" height="100%" viewBox="0 0 83 41" version="1.1" xmlns="http://www.w3.org/2000/svg" xmlns:xlink="http://www.w3.org/1999/xlink" xml:space="preserve" xmlns:serif="http://www.serif.com/" style="fill-rule:evenodd;clip-rule:evenodd;stroke-linecap:round;stroke-linejoin:round;stroke-miterlimit:1.5;"><path d="M24.122,32.271l15.778,-15.778c2.474,-3.021 1.792,-4.43 2.474,-3.747c0,-0 -0.045,5.911 -0.06,7.827c-0.01,1.307 -0.509,2.701 -1.389,3.668c-2.302,2.531 -11.276,12.399 -11.276,12.399l-0.653,2.014c-0.289,0.891 -1.337,2.128 -2.402,2.128l-20.669,-0c-1.064,-0 -2.402,-0.954 -2.402,-2.128l-0.788,-4.255c0,-1.175 0.954,-2.128 2.128,-2.128l19.259,-0Z" style="fill:#00e0d2;"/><path d="M58.841,32.271l-15.778,-15.778c-2.474,-3.021 -1.791,-4.43 -2.474,-3.747c0,-0 0.046,5.911 0.06,7.827c0.01,1.307 0.51,2.701 1.389,3.668c2.302,2.531 11.277,12.399 11.277,12.399l0.652,2.014c0.289,0.891 1.338,2.128 2.402,2.128l20.669,-0c1.065,-0 2.402,-0.954 2.402,-2.128l0.788,-4.255c0,-1.175 -0.953,-2.128 -2.127,-2.128l-19.26,-0Z" style="fill:#00e0d2;"/><path d="M8.494,9.242c-0,0.204 0.121,0.389 0.309,0.471c0.187,0.081 0.405,0.044 0.555,-0.096c0.745,-0.694 1.702,-1.587 1.702,-1.587c1.368,1.241 2.29,1.2 3.705,0c2.156,1.2 5.829,1.264 7.712,0c0,0 0.872,0.894 1.54,1.579c0.124,0.127 0.313,0.167 0.478,0.1c0.164,-0.067 0.272,-0.227 0.272,-0.405c0,-1.001 0,-2.34 0,-2.34c0,-1.157 -0.756,-2.138 -1.799,-2.477l-0,-0.395c-0,-1.132 -0.92,-2.052 -2.053,-2.052l-8.569,0c-1.133,0 -2.053,0.92 -2.053,2.052l0,0.395c-1.044,0.339 -1.799,1.32 -1.799,2.477l-0,2.278Z" style="fill:#00e0d2;"/><path d="M74.47,9.242c-0,0.204 -0.122,0.389 -0.309,0.471c-0.188,0.081 -0.406,0.044 -0.555,-0.096c-0.745,-0.694 -1.702,-1.587 -1.702,-1.587c-1.369,1.241 -2.291,1.2 -3.705,0c-2.157,1.2 -5.829,1.264 -7.713,0c0,0 -0.872,0.894 -1.54,1.579c-0.124,0.127 -0.313,0.167 -0.477,0.1c-0.165,-0.067 -0.273,-0.227 -0.273,-0.405c0,-1.001 0,-2.34 0,-2.34c0,-1.157 0.756,-2.138 1.8,-2.477l-0,-0.395c-0,-1.132 0.919,-2.052 2.052,-2.052l8.57,0c1.133,0 2.052,0.92 2.052,2.052l0,0.395c1.044,0.339 1.8,1.32 1.8,2.477l-0,2.278Z" style="fill:#00e0d2;"/><path d="M6.422,9.253l2.482,-2.309c1.368,1.241 2.29,1.2 3.705,0c2.156,1.2 5.829,1.263 7.712,0l2.234,2.309" style="fill:none;stroke:#1a1a1a;stroke-width:1.91px;"/><path d="M76.542,9.253l-2.482,-2.309c-1.369,1.241 -2.291,1.2 -3.705,0c-2.157,1.2 -5.829,1.263 -7.713,0l-2.233,2.309" style="fill:none;stroke:#1a1a1a;stroke-width:1.91px;"/><path d="M8.137,3.4l0,-0.394c0,-1.133 0.92,-2.052 2.053,-2.052l8.569,-0c1.133,-0 2.053,0.919 2.053,2.052l-0,0.394c1.043,0.339 1.799,1.321 1.799,2.477l0,8.219c1.404,0.103 2.512,1.276 2.512,2.705c-0,1.43 -1.108,2.603 -2.512,2.706l0,1.018c0,7.585 -8.223,7.585 -8.223,7.585c0,0 -8.05,0 -8.05,-7.585l-0,-14.648c-0,-1.156 0.755,-2.138 1.799,-2.477Z" style="fill:none;stroke:#1a1a1a;stroke-width:1.91px;"/><path d="M74.826,3.4l0,-0.394c0,-1.133 -0.919,-2.052 -2.052,-2.052l-8.57,-0c-1.133,-0 -2.052,0.919 -2.052,2.052l-0,0.394c-1.044,0.339 -1.8,1.321 -1.8,2.477l0,8.219c-1.403,0.103 -2.511,1.276 -2.511,2.705c-0,1.43 1.108,2.603 2.511,2.706l0,1.018c0,7.585 8.223,7.585 8.223,7.585c0,0 8.051,0 8.051,-7.585l-0,-14.648c-0,-1.156 -0.756,-2.138 -1.8,-2.477Z" style="fill:none;stroke:#1a1a1a;stroke-width:1.91px;"/><path d="M20.712,30.577l-12.475,0l2.768,-3.143c1.778,0.676 3.383,0.676 3.383,0.676c0,0 1.686,0 3.531,-0.704l2.793,3.171Z" style="fill:none;stroke:#1a1a1a;stroke-width:1.91px;"/><path d="M62.252,30.577l12.474,0l-2.768,-3.143c-1.777,0.676 -3.383,0.676 -3.383,0.676c0,0 -1.686,0 -3.53,-0.704l-2.793,3.171Z" style="fill:none;stroke:#1a1a1a;stroke-width:1.91px;"/><path d="M22.337,30.577l15.778,-15.778c2.474,-3.021 1.791,-4.429 2.474,-3.747c0,0 -0.045,5.911 -0.06,7.827c-0.01,1.308 -0.51,2.701 -1.389,3.669c-2.302,2.531 -11.276,12.399 -11.276,12.399l-0.653,2.013c-0.289,0.891 -1.337,2.128 -2.402,2.128l-20.669,-0c-1.065,-0 -2.402,-0.953 -2.402,-2.128l-0.788,-4.255c0,-1.174 0.953,-2.128 2.128,-2.128l19.259,0Z" style="fill:none;stroke:#1a1a1a;stroke-width:1.9px;"/><path d="M60.626,30.577l-15.778,-15.778c-2.474,-3.021 -1.791,-4.429 -2.474,-3.747c0,0 0.046,5.911 0.061,7.827c0.01,1.308 0.509,2.701 1.389,3.669c2.302,2.531 11.276,12.399 11.276,12.399l0.653,2.013c0.288,0.891 1.337,2.128 2.402,2.128l20.668,-0c1.065,-0 2.402,-0.953 2.402,-2.128l0.788,-4.255c0,-1.174 -0.953,-2.128 -2.127,-2.128l-19.26,0Z" style="fill:none;stroke:#1a1a1a;stroke-width:1.9px;"/><path d="M41.482,1.444l-0,2.648" style="fill:none;stroke:#1a1a1a;stroke-width:1.9px;"/><path d="M41.482,6.5l-0,0.444" style="fill:none;stroke:#1a1a1a;stroke-width:1.9px;"/><path d="M35.458,4.499l2.445,2.445" style="fill:none;stroke:#1a1a1a;stroke-width:1.9px;"/><path d="M47.505,4.499l-2.445,2.445" style="fill:none;stroke:#1a1a1a;stroke-width:1.9px;"/><path d="M17.089,20.045c-0.007,0.098 -0.011,0.196 -0.011,0.294c0,2.103 1.607,3.885 3.767,4.178c-2.16,-0.293 -3.767,-2.075 -3.767,-4.178c0,-0.098 0.004,-0.196 0.011,-0.294Z" style="fill:none;stroke:#1a1a1a;stroke-width:1.9px;"/><path d="M65.164,19.507c0.007,0.098 0.011,0.196 0.011,0.294c-0,2.103 -1.607,3.885 -3.766,4.178c2.159,-0.293 3.766,-2.075 3.766,-4.178c-0,-0.098 -0.004,-0.196 -0.011,-0.294Z" style="fill:none;stroke:#1a1a1a;stroke-width:1.9px;"/></svg>