<?xml version="1.0" encoding="UTF-8" standalone="no"?><!DOCTYPE svg PUBLIC "-//W3C//DTD SVG 1.1//EN" "http://www.w3.org/Graphics/SVG/1.1/DTD/svg11.dtd"><svg width="100%" height="100%" viewBox="0 0 42 42" version="1.1" xmlns="http://www.w3.org/2000/svg" xmlns:xlink="http://www.w3.org/1999/xlink" xml:space="preserve" xmlns:serif="http://www.serif.com/" style="fill-rule:evenodd;clip-rule:evenodd;stroke-linecap:round;stroke-linejoin:round;stroke-miterlimit:1.5;"><rect x="-0" y="0" width="42" height="42" style="fill:none;"/><g><path d="M7.746,40.083c0.31,-0.013 -0.642,-0.032 -0.642,-0.032c-1.247,0 -2.259,-1.011 -2.259,-2.259l0,-30.804c0,-0.74 0.294,-1.449 0.817,-1.972c0.523,-0.524 1.233,-0.817 1.973,-0.817l24.087,-0c0.74,-0 1.449,0.293 1.972,0.817c0.523,0.523 0.817,1.232 0.817,1.972l0,26.799l3.807,0c1.738,0 3.147,1.409 3.147,3.147c0,0.001 0,0.001 0,0.002c0,1.738 -1.409,3.147 -3.147,3.147l-30.572,-0Zm18.066,-27.992c-0,-0.479 -0.389,-0.867 -0.868,-0.867l-7.853,-0c-0.479,-0 -0.867,0.388 -0.867,0.867l-0,5.494c-0,0.479 0.388,0.868 0.867,0.868l7.853,-0c0.479,-0 0.868,-0.389 0.868,-0.868l-0,-5.494Z" style="fill:#00e0d2;"/><path d="M13.716,11.64l-7.966,-0" style="fill:none;stroke:#1a1a1a;stroke-width:1.95px;"/><path d="M13.716,14.838l-7.966,0" style="fill:none;stroke:#1a1a1a;stroke-width:1.95px;"/><path d="M13.716,18.037l-7.966,-0" style="fill:none;stroke:#1a1a1a;stroke-width:1.95px;"/><path d="M25.812,21.235l-20.062,0" style="fill:none;stroke:#1a1a1a;stroke-width:1.95px;"/><path d="M25.812,24.434l-20.062,-0" style="fill:none;stroke:#1a1a1a;stroke-width:1.95px;"/><path d="M31.132,31.506l-19.568,0c-1.927,0 -3.49,1.562 -3.49,3.489l0,0.031l0,0.037l-0,0.032l-0.001,0.034l-0.001,0.031l-0.002,0.043l-0.002,0.043l-0.001,0.021l-0.002,0.026l-0.003,0.037l-0.003,0.029l-0.003,0.033l-0.003,0.029l-0.005,0.041l-0.005,0.04l-0.003,0.019l-0.003,0.02l-0.004,0.026l-0.006,0.033l-0.005,0.027l-0.006,0.031l-0.005,0.027l-0.008,0.038l-0.009,0.037l-0.005,0.018l-0.005,0.021l-0.009,0.034l-0.007,0.026l-0.008,0.029l-0.008,0.025l-0.011,0.035l-0.011,0.035l-0.006,0.017l-0.006,0.018l-0.008,0.02l-0.011,0.031l-0.009,0.023l-0.014,0.034l-0.014,0.033l-0.014,0.032l-0.008,0.016l-0.007,0.016l-0.008,0.017l-0.009,0.019l-0.014,0.028l-0.011,0.021l-0.017,0.031l-0.017,0.031l-0.018,0.03l-0.008,0.015l-0.009,0.015c-0.004,0.005 -0.007,0.01 -0.01,0.015l-0.011,0.018l-0.02,0.03l-0.019,0.029l-0.02,0.028l-0.02,0.028l-0.011,0.014l-0.01,0.014l-0.011,0.014l-0.011,0.014l-0.012,0.016l-0.023,0.027l-0.023,0.027l-0.022,0.026l-0.023,0.025l-0.012,0.013l-0.012,0.013c-0.004,0.004 -0.008,0.008 -0.012,0.013l-0.013,0.013l-0.014,0.014l-0.025,0.025l-0.026,0.024l-0.025,0.024l-0.013,0.011l-0.013,0.012c-0.018,0.016 -0.036,0.031 -0.054,0.046l-0.016,0.013l-0.028,0.023l-0.028,0.022l-0.029,0.022l-0.014,0.01l-0.014,0.01c-0.02,0.015 -0.039,0.029 -0.06,0.042l-0.017,0.012l-0.031,0.021l-0.031,0.019l-0.031,0.02l-0.015,0.009c-0.021,0.013 -0.043,0.025 -0.064,0.038l-0.019,0.01l-0.034,0.019l-0.033,0.018l-0.033,0.017l-0.017,0.008l-0.017,0.009c-0.022,0.011 -0.046,0.022 -0.069,0.033l-0.039,0.018l-0.036,0.016l-0.035,0.015l-0.041,0.018l-0.033,0.013l-0.034,0.013l-0.036,0.014l-0.036,0.014l-0.036,0.013l-0.036,0.012l-0.036,0.012l-0.035,0.012l-0.037,0.012l-0.038,0.012l-0.038,0.011l-0.038,0.011l-0.038,0.011l-0.025,0.007l-0.021,0.006l-0.04,0.01l-0.021,0.006l-0.041,0.01l-0.041,0.01l-0.042,0.01l-0.042,0.009l-0.042,0.009c-0.013,0.003 -0.027,0.006 -0.041,0.009l-0.041,0.008l-0.043,0.009l-0.043,0.008l-0.044,0.008l-0.043,0.007l-0.044,0.008l-0.043,0.007l-0.043,0.006l-0.043,0.007l-0.041,0.005c-0.13,0.019 -0.264,0.034 -0.401,0.046l-1.125,0c-1.248,0 -2.26,-1.011 -2.26,-2.259l0,-30.804c0,-0.74 0.294,-1.449 0.817,-1.973c0.524,-0.523 1.233,-0.817 1.973,-0.817l24.087,0c0.74,0 1.449,0.294 1.973,0.817c0.523,0.524 0.817,1.233 0.817,1.973l-0,26.799Z" style="fill:none;stroke:#1a1a1a;stroke-width:1.95px;"/><path d="M38.086,34.652c-0,-0.834 -0.332,-1.635 -0.922,-2.225c-0.59,-0.59 -1.39,-0.921 -2.224,-0.921c-5.652,0 -17.483,0 -23.376,0c-0.925,0 -1.813,0.368 -2.467,1.022c-0.655,0.655 -1.023,1.542 -1.023,2.468c0,0 0,0.001 0,0.001c0.016,1.977 -1.462,2.711 -3.708,2.804l30.574,0c1.737,0 3.146,-1.408 3.146,-3.146c-0,-0.001 -0,-0.002 -0,-0.003Z" style="fill:none;stroke:#1a1a1a;stroke-width:1.95px;"/><path d="M25.812,12.091c-0,-0.479 -0.389,-0.867 -0.868,-0.867l-7.853,-0c-0.479,-0 -0.867,0.388 -0.867,0.867l-0,5.494c-0,0.479 0.388,0.868 0.867,0.868l7.853,-0c0.479,-0 0.868,-0.389 0.868,-0.868l-0,-5.494Z" style="fill:none;stroke:#1a1a1a;stroke-width:1.95px;"/></g></svg>