<?xml version="1.0" encoding="UTF-8" standalone="no"?><!DOCTYPE svg PUBLIC "-//W3C//DTD SVG 1.1//EN" "http://www.w3.org/Graphics/SVG/1.1/DTD/svg11.dtd"><svg width="100%" height="100%" viewBox="0 0 42 42" version="1.1" xmlns="http://www.w3.org/2000/svg" xmlns:xlink="http://www.w3.org/1999/xlink" xml:space="preserve" xmlns:serif="http://www.serif.com/" style="fill-rule:evenodd;clip-rule:evenodd;stroke-linecap:round;stroke-linejoin:round;stroke-miterlimit:1.5;"><rect x="0" y="0" width="42" height="42" style="fill:none;"/><g><path d="M40.978,21.306c0.269,-1.071 -0.383,-1.941 -1.454,-1.941l-29.523,-0c-1.071,-0 -2.16,0.87 -2.429,1.941l-3.902,15.532c-0.269,1.071 0.382,1.941 1.454,1.941l29.522,0c1.072,0 2.16,-0.87 2.429,-1.941l3.903,-15.532Z" style="fill:#00e0d2;"/><path d="M31.987,9.003c-0,-0.424 -0.345,-0.769 -0.769,-0.769l-7.103,-0c-0.424,-0 -0.769,0.345 -0.769,0.769l0,4.871c0,0.424 0.345,0.769 0.769,0.769l7.103,-0c0.424,-0 0.769,-0.345 0.769,-0.769l-0,-4.871Z" style="fill:#00e0d2;"/><path d="M2.036,35.714c-0.357,-0.355 -0.571,-0.801 -0.571,-1.286l0,-21.417c0,-1.153 1.206,-2.089 2.691,-2.089l4.015,-0l-0,6.181c0.007,-0 0.015,0 0.024,0.002c-1.042,0.046 -2.078,0.898 -2.34,1.939l-3.902,15.532c-0.107,0.425 -0.069,0.818 0.083,1.138Z" style="fill:none;stroke:#1a1a1a;stroke-width:2px;"/><path d="M34.905,16.977l-26.734,-0l-0,-10.849c-0,-0.642 0.265,-1.259 0.736,-1.713c0.471,-0.454 1.111,-0.709 1.778,-0.709l21.706,-0c0.667,-0 1.306,0.255 1.778,0.709c0.471,0.454 0.736,1.071 0.736,1.713l-0,10.849Z" style="fill:none;stroke:#1a1a1a;stroke-width:2px;"/><path d="M30.111,7.313c-0,-0.424 -0.345,-0.769 -0.769,-0.769l-7.103,0c-0.424,0 -0.769,0.345 -0.769,0.769l0,4.871c0,0.425 0.345,0.769 0.769,0.769l7.103,0c0.424,0 0.769,-0.344 0.769,-0.769l-0,-4.871Z" style="fill:none;stroke:#1a1a1a;stroke-width:2px;"/><path d="M19.21,6.913l-7.178,0" style="fill:none;stroke:#1a1a1a;stroke-width:2px;"/><path d="M19.21,9.749l-7.178,-0" style="fill:none;stroke:#1a1a1a;stroke-width:2px;"/><path d="M19.21,12.585l-7.178,-0" style="fill:none;stroke:#1a1a1a;stroke-width:2px;"/><path d="M39.261,19.044c0.269,-1.071 -0.383,-1.941 -1.454,-1.941l-29.523,-0c-1.071,-0 -2.16,0.87 -2.429,1.941l-3.902,15.532c-0.269,1.071 0.382,1.941 1.454,1.941l29.522,0c1.072,0 2.16,-0.87 2.429,-1.941l3.903,-15.532Z" style="fill:none;stroke:#1a1a1a;stroke-width:2px;"/></g></svg>