<?xml version="1.0" encoding="UTF-8" standalone="no"?><!DOCTYPE svg PUBLIC "-//W3C//DTD SVG 1.1//EN" "http://www.w3.org/Graphics/SVG/1.1/DTD/svg11.dtd"><svg width="100%" height="100%" viewBox="0 0 42 42" version="1.1" xmlns="http://www.w3.org/2000/svg" xmlns:xlink="http://www.w3.org/1999/xlink" xml:space="preserve" xmlns:serif="http://www.serif.com/" style="fill-rule:evenodd;clip-rule:evenodd;stroke-linecap:round;stroke-linejoin:round;stroke-miterlimit:1.5;"><rect x="0" y="0" width="42" height="42" style="fill:none;"/><g><path d="M4.682,25.647l-0,-15.261c-0,-2.982 2.42,-5.403 5.402,-5.403l25.212,0c2.982,0 5.402,2.421 5.402,5.403l0,25.211c0,2.982 -2.42,5.403 -5.402,5.403l-25.212,0c-2.338,0 -4.332,-1.489 -5.083,-3.57l26.649,0c3.148,0 5.701,-2.552 5.701,-5.7c-0,-3.008 -0,-6.083 -0,-6.083l-32.669,0Z" style="fill:#00e0d2;"/><path d="M37.318,6.403c0,-2.982 -2.42,-5.403 -5.402,-5.403l-25.212,0c-2.982,0 -5.402,2.421 -5.402,5.403l-0,25.211c-0,2.982 2.42,5.403 5.402,5.403l25.212,-0c2.982,-0 5.402,-2.421 5.402,-5.403l0,-25.211Z" style="fill:none;stroke:#1a1a1a;stroke-width:2px;"/><path d="M14.329,10.536l-4.962,5.138l4.519,4.519" style="fill:none;stroke:#1a1a1a;stroke-width:2px;"/><path d="M24.291,10.536l4.962,5.138l-4.519,4.519" style="fill:none;stroke:#1a1a1a;stroke-width:2px;"/><path d="M20.974,10.536l-3.328,11.252" style="fill:none;stroke:#1a1a1a;stroke-width:2px;"/><path d="M1.364,26.364l35.507,0" style="fill:none;stroke:#1a1a1a;stroke-width:2px;"/><circle cx="21.734" cy="31.552" r="1.865" style="fill:#1a1a1a;"/><circle cx="29.711" cy="31.552" r="1.865" style="fill:#1a1a1a;"/><path d="M5.657,5.959l18.135,-0" style="fill:none;stroke:#1a1a1a;stroke-width:2px;"/><path d="M27.423,5.959l4.153,-0" style="fill:none;stroke:#1a1a1a;stroke-width:2px;"/></g></svg>