<?xml version="1.0" encoding="UTF-8" standalone="no"?><!DOCTYPE svg PUBLIC "-//W3C//DTD SVG 1.1//EN" "http://www.w3.org/Graphics/SVG/1.1/DTD/svg11.dtd"><svg width="100%" height="100%" viewBox="0 0 42 42" version="1.1" xmlns="http://www.w3.org/2000/svg" xmlns:xlink="http://www.w3.org/1999/xlink" xml:space="preserve" xmlns:serif="http://www.serif.com/" style="fill-rule:evenodd;clip-rule:evenodd;stroke-linecap:round;stroke-linejoin:round;stroke-miterlimit:1.5;"><rect x="0" y="0" width="42" height="42" style="fill:none;"/><g><path d="M21.55,10.783l-5.828,-0l8.852,25.272l2.411,-1.356l1.549,-3.976l-6.984,-19.94Zm-9.825,26.388c-4.178,-3.285 -6.865,-8.385 -6.865,-14.109c0,-1.419 0.166,-2.801 0.478,-4.126l5.677,16.209l0.632,0.44l0.991,-0.157l2.713,-4.545l-6.632,-18.931c3.287,-4.158 8.374,-6.827 14.079,-6.827c2.427,-0 4.743,0.483 6.856,1.359c-1.439,1.557 -1.332,4.082 0.203,4.987c4.49,2.647 3.833,5.696 3.51,6.601c-0.07,0.171 -0.11,0.265 -0.11,0.265c-0,0 0.049,-0.094 0.11,-0.265c0.413,-1.002 1.878,-4.631 2.531,-7.258c3,3.208 4.838,7.515 4.838,12.248c-0,9.9 -8.038,17.938 -17.938,17.938c-3.771,0 -7.272,-1.166 -10.16,-3.156l-0.913,-0.673Z" style="fill:#00e0d2;"/><circle cx="19.202" cy="18.938" r="17.938" style="fill:none;"/><clipPath id="_clip1"><circle cx="19.202" cy="18.938" r="17.938"/></clipPath><g clip-path="url(#_clip1)"><path d="M8.366,10.943l-5.828,-0l9.743,27.816l3.07,-7.876l-6.985,-19.94Z" style="fill:none;stroke:#1a1a1a;stroke-width:2px;"/><path d="M21.55,10.783l-5.828,-0l9.743,27.816l3.069,-7.876l-6.984,-19.94Z" style="fill:none;stroke:#1a1a1a;stroke-width:2px;"/><path d="M33.791,16.678l-5.34,14.144" style="fill:none;stroke:#1a1a1a;stroke-width:2px;"/><path d="M19.126,20.771l-3.924,10.393" style="fill:none;stroke:#1a1a1a;stroke-width:2px;"/><path d="M33.257,18.337c-0,0 2.959,-7.014 2.959,-9.515c0,-1.506 -0.689,-3.628 -3.341,-3.628c-4.424,0 -5.302,4.93 -3.018,6.277c5.34,3.148 3.4,6.866 3.4,6.866Z" style="fill:none;stroke:#1a1a1a;stroke-width:2px;"/><path d="M13.799,10.494c0.772,0.373 7.204,0.474 9.619,-0" style="fill:none;stroke:#1a1a1a;stroke-width:2px;"/><path d="M0.142,10.494c0.772,0.373 7.204,0.474 9.619,-0" style="fill:none;stroke:#1a1a1a;stroke-width:2px;"/></g><circle cx="19.202" cy="18.938" r="17.938" style="fill:none;stroke:#1a1a1a;stroke-width:2px;"/></g></svg>