<?xml version="1.0" encoding="UTF-8" standalone="no"?><!DOCTYPE svg PUBLIC "-//W3C//DTD SVG 1.1//EN" "http://www.w3.org/Graphics/SVG/1.1/DTD/svg11.dtd"><svg width="100%" height="100%" viewBox="0 0 42 42" version="1.1" xmlns="http://www.w3.org/2000/svg" xmlns:xlink="http://www.w3.org/1999/xlink" xml:space="preserve" xmlns:serif="http://www.serif.com/" style="fill-rule:evenodd;clip-rule:evenodd;stroke-linecap:round;stroke-linejoin:round;stroke-miterlimit:1.5;"><rect x="0" y="0" width="42" height="42" style="fill:none;"/><g><circle cx="13.326" cy="28.607" r="2.217" style="fill:#1a1a1a;"/><circle cx="20.762" cy="28.607" r="2.217" style="fill:#1a1a1a;"/><path d="M6.923,25.41c-2.21,-0.957 -3.758,-3.159 -3.758,-5.72l-0,-12.46c-0,-3.438 2.791,-6.23 6.23,-6.23l23.21,0c3.439,0 6.23,2.792 6.23,6.23l0,12.46c0,3.439 -2.791,6.23 -6.23,6.23l-5.229,0c-0.795,-2.212 -2.912,-3.796 -5.397,-3.796l-9.87,-0c-2.289,-0 -4.267,1.344 -5.186,3.286Z" style="fill:none;stroke:#1a1a1a;stroke-width:2px;"/><path d="M26.838,13.871c0.231,0.139 0.371,0.389 0.371,0.658c0,0.27 -0.14,0.52 -0.371,0.659c-1.578,0.957 -4.494,2.726 -6.135,3.72c-0.244,0.148 -0.549,0.153 -0.798,0.013c-0.249,-0.14 -0.403,-0.403 -0.403,-0.689c0,-1.952 0,-5.462 0,-7.41c0,-0.285 0.153,-0.547 0.401,-0.687c0.248,-0.14 0.552,-0.135 0.796,0.013c1.639,0.994 4.56,2.765 6.139,3.723Z" style="fill:#00e0d2;"/><path d="M24.834,11.394c0.231,0.139 0.371,0.389 0.371,0.658c0,0.27 -0.14,0.519 -0.371,0.659c-1.578,0.957 -4.494,2.726 -6.135,3.72c-0.244,0.148 -0.549,0.153 -0.798,0.013c-0.249,-0.14 -0.403,-0.404 -0.403,-0.689c0,-1.952 0,-5.462 0,-7.41c0,-0.285 0.154,-0.547 0.401,-0.687c0.248,-0.14 0.552,-0.135 0.796,0.013c1.639,0.994 4.56,2.765 6.139,3.723Z" style="fill:none;stroke:#1a1a1a;stroke-width:2px;"/><path d="M15.931,26.849c0.87,-0.567 1.903,-0.905 3.012,-0.928c-0.859,0.584 -1.425,1.57 -1.425,2.686c0,1.79 1.454,3.243 3.244,3.243c1.79,0 3.243,-1.453 3.243,-3.243c0,-1.117 -0.566,-2.103 -1.426,-2.687l6.351,0c3.164,0 5.733,2.569 5.733,5.734l0,1.563c0,3.165 -2.569,5.734 -5.733,5.734l-5.457,-0l-4.414,2.049l0,-2.049c-3.164,-0 -5.733,-2.569 -5.733,-5.734l0,-1.468c1.735,0 3.143,-1.408 3.143,-3.142c-0,-0.651 -0.199,-1.256 -0.538,-1.758Z" style="fill:#00e0d2;"/><path d="M27.712,27.857c0,-3.164 -2.569,-5.733 -5.733,-5.733l-9.87,-0c-3.165,-0 -5.734,2.569 -5.734,5.733l0,1.564c0,3.164 2.569,5.733 5.734,5.733l-0,2.05l4.414,-2.05l5.456,0c3.164,0 5.733,-2.569 5.733,-5.733l0,-1.564Z" style="fill:none;stroke:#1a1a1a;stroke-width:2px;"/></g></svg>