<?xml version="1.0" encoding="UTF-8" standalone="no"?><!DOCTYPE svg PUBLIC "-//W3C//DTD SVG 1.1//EN" "http://www.w3.org/Graphics/SVG/1.1/DTD/svg11.dtd"><svg width="100%" height="100%" viewBox="0 0 42 42" version="1.1" xmlns="http://www.w3.org/2000/svg" xmlns:xlink="http://www.w3.org/1999/xlink" xml:space="preserve" xmlns:serif="http://www.serif.com/" style="fill-rule:evenodd;clip-rule:evenodd;stroke-linecap:round;stroke-linejoin:round;stroke-miterlimit:1.5;"><rect x="0" y="0" width="42" height="42" style="fill:none;"/><g><path d="M32.89,30.332c3.684,-3.684 3.684,-9.667 -0,-13.351l-2.173,-2.173c-3.685,-3.684 -9.667,-3.684 -13.351,-0l-8.256,8.256c-3.684,3.684 -3.684,9.666 0,13.35l2.173,2.174c3.685,3.684 9.667,3.684 13.351,-0l8.256,-8.256Zm-8.697,-13.935c-0.403,-0.402 -1.057,-0.402 -1.459,0l-5.218,5.218c-0.403,0.403 -0.403,1.056 -0,1.459l1.459,1.459c0.402,0.402 1.056,0.402 1.458,-0l5.218,-5.218c0.403,-0.403 0.403,-1.057 0,-1.459l-1.458,-1.459Z" style="fill:#00e0d2;"/><path d="M30.548,27.426c3.684,-3.684 3.684,-9.666 0,-13.351l-2.173,-2.173c-3.684,-3.684 -9.667,-3.684 -13.351,0l-8.256,8.256c-3.684,3.684 -3.684,9.666 0,13.351l2.174,2.173c3.684,3.684 9.666,3.684 13.35,-0l8.256,-8.256Z" style="fill:none;stroke:#000;stroke-width:2px;"/><path d="M37.995,5.905c-0,0 -7.96,-6.227 -9.437,-4.108c-1.476,2.118 0.578,2.888 1.092,4.108c0.513,1.22 1.027,2.426 1.027,3.788c-0,1.726 -1.416,3.095 -1.416,3.095" style="fill:none;stroke:#000;stroke-width:2px;"/><path d="M18.212,20.919l-6.103,-6.102l2.915,-2.915c3.684,-3.684 9.667,-3.684 13.351,0l2.173,2.173c3.684,3.685 3.684,9.667 0,13.351l-2.915,2.915l-6.504,-6.504l4.524,-4.524c0.403,-0.403 0.403,-1.056 0,-1.459l-1.459,-1.459c-0.402,-0.402 -1.056,-0.402 -1.458,0l-4.524,4.524Z" style="fill:none;stroke:#000;stroke-width:2px;"/><path d="M24.193,16.397c-0.403,-0.402 -1.057,-0.402 -1.459,0l-5.218,5.218c-0.403,0.403 -0.403,1.056 -0,1.459l1.459,1.459c0.402,0.402 1.056,0.402 1.458,-0l5.218,-5.218c0.403,-0.403 0.403,-1.057 0,-1.459l-1.458,-1.459Z" style="fill:none;stroke:#000;stroke-width:2px;"/></g></svg>