<?xml version="1.0" encoding="UTF-8" standalone="no"?><!DOCTYPE svg PUBLIC "-//W3C//DTD SVG 1.1//EN" "http://www.w3.org/Graphics/SVG/1.1/DTD/svg11.dtd"><svg width="100%" height="100%" viewBox="0 0 42 42" version="1.1" xmlns="http://www.w3.org/2000/svg" xmlns:xlink="http://www.w3.org/1999/xlink" xml:space="preserve" xmlns:serif="http://www.serif.com/" style="fill-rule:evenodd;clip-rule:evenodd;stroke-linecap:round;stroke-linejoin:round;stroke-miterlimit:1.5;"><rect x="0" y="0" width="42" height="42" style="fill:none;"/><g><path d="M35.708,34.617c-0,-1.174 -0.953,-2.128 -2.128,-2.128l-5.159,0l-6.224,3.52l-6.251,-3.52l-5.159,0c-1.175,0 -2.128,0.954 -2.128,2.128l0.788,4.255c0,1.175 1.337,2.128 2.402,2.128l20.669,0c1.065,0 2.402,-0.953 2.402,-2.128l0.788,-4.255Zm-15.891,0.098l2.156,4.419l-4.313,0l2.157,-4.419Z" style="fill:#00e0d2;"/><path d="M13.836,9.288c-0,0.204 0.121,0.389 0.309,0.471c0.187,0.081 0.405,0.044 0.555,-0.095c0.745,-0.695 1.702,-1.587 1.702,-1.587c1.368,1.24 2.29,1.199 3.705,-0c2.157,1.199 5.829,1.263 7.712,-0c0,-0 0.872,0.894 1.54,1.578c0.124,0.127 0.313,0.167 0.478,0.1c0.165,-0.067 0.272,-0.227 0.272,-0.405c0,-1.001 0,-2.34 0,-2.34c0,-1.157 -0.755,-2.138 -1.799,-2.477l-0,-0.395c-0,-1.132 -0.92,-2.052 -2.053,-2.052l-8.569,0c-1.133,0 -2.053,0.92 -2.053,2.052l0,0.395c-1.043,0.339 -1.799,1.32 -1.799,2.477l-0,2.278Z" style="fill:#00e0d2;"/><g><path d="M33.341,32.751c-0,-1.174 -0.953,-2.128 -2.128,-2.128l-5.159,0l-6.224,3.52l-6.251,-3.52l-5.159,0c-1.175,0 -2.128,0.954 -2.128,2.128l0.788,4.255c0,1.175 1.337,2.128 2.402,2.128l20.669,0c1.065,0 2.402,-0.953 2.402,-2.128l0.788,-4.255Z" style="fill:none;stroke:#1a1a1a;stroke-width:1.91px;"/><path d="M11.764,9.299l2.482,-2.309c1.368,1.241 2.29,1.2 3.705,0c2.157,1.2 5.829,1.263 7.712,0l2.234,2.309" style="fill:none;stroke:#1a1a1a;stroke-width:1.91px;"/><path d="M19.817,34.143l2.406,4.991l-4.813,0l2.407,-4.991l-5.267,-3.345l10.62,-0l-5.353,3.345Z" style="fill:none;stroke:#1a1a1a;stroke-width:1.91px;"/><path d="M13.479,3.446l0,-0.394c0,-1.132 0.92,-2.052 2.053,-2.052l8.569,0c1.133,0 2.053,0.92 2.053,2.052l-0,0.394c1.044,0.339 1.799,1.321 1.799,2.477l0,5.761c1.404,0.104 2.512,1.276 2.512,2.706c-0,1.429 -1.108,2.602 -2.512,2.705l0,3.476c0,7.585 -8.223,7.585 -8.223,7.585c0,0 -8.05,0 -8.05,-7.585l-0,-3.476c-0.067,0.005 -0.134,0.008 -0.202,0.008c-1.497,-0 -2.713,-1.216 -2.713,-2.713c0,-1.497 1.216,-2.713 2.713,-2.713c0.068,0 0.135,0.003 0.202,0.007l-0,-5.761c-0,-1.156 0.756,-2.138 1.799,-2.477Z" style="fill:none;stroke:#1a1a1a;stroke-width:1.91px;"/><path d="M26.054,30.623l-6.224,3.52l-6.251,-3.52l2.768,-3.142c1.778,0.675 3.383,0.675 3.383,0.675c0,0 1.686,0 3.531,-0.704l2.793,3.171Z" style="fill:none;stroke:#1a1a1a;stroke-width:1.91px;"/></g></g></svg>