<?xml version="1.0" encoding="UTF-8" standalone="no"?><!DOCTYPE svg PUBLIC "-//W3C//DTD SVG 1.1//EN" "http://www.w3.org/Graphics/SVG/1.1/DTD/svg11.dtd"><svg width="100%" height="100%" viewBox="0 0 42 42" version="1.1" xmlns="http://www.w3.org/2000/svg" xmlns:xlink="http://www.w3.org/1999/xlink" xml:space="preserve" xmlns:serif="http://www.serif.com/" style="fill-rule:evenodd;clip-rule:evenodd;stroke-linecap:round;stroke-linejoin:round;stroke-miterlimit:1.5;"><rect x="0" y="0" width="42" height="42" style="fill:none;"/><g><path d="M27.167,8.16l4.136,-4.135c1.212,-1.212 3.181,-1.212 4.394,0l4.394,4.394c1.212,1.213 1.212,3.181 -0,4.394l-24.712,24.711c-0.432,0.432 -0.96,0.711 -1.517,0.835l0.01,0.009c-0,-0 -4.809,1.197 -8.015,1.996c-0.592,0.147 -1.217,-0.027 -1.648,-0.458c-0.432,-0.431 -0.605,-1.057 -0.458,-1.648c0.798,-3.206 1.996,-8.015 1.996,-8.015l0.01,0.01c0.124,-0.556 0.402,-1.084 0.835,-1.517l16.68,-16.68l6.84,6.84c0.538,0.537 1.41,0.537 1.948,-0l1.948,-1.948c0.537,-0.537 0.537,-1.41 -0,-1.947l-6.841,-6.841Z" style="fill:#00e0d2;"/><g><path d="M24.917,6.18l3.686,-3.686c1.213,-1.212 3.182,-1.212 4.394,0l4.394,4.394c1.213,1.213 1.213,3.182 -0,4.394l-3.686,3.686l0.152,0.153c0.516,0.515 0.516,1.352 0,1.868l-1.868,1.868c-0.515,0.516 -1.353,0.516 -1.868,0l-0.153,-0.152l-17.288,17.288c-0.433,0.433 -0.961,0.711 -1.517,0.835l0.009,0.009c-0,-0 -4.809,1.197 -8.014,1.996c-0.592,0.147 -1.218,-0.026 -1.649,-0.458c-0.431,-0.431 -0.605,-1.056 -0.457,-1.648c0.798,-3.206 1.995,-8.015 1.995,-8.015l0.011,0.011c0.123,-0.557 0.402,-1.085 0.834,-1.518l17.289,-17.288l-0.153,-0.153c-0.515,-0.515 -0.515,-1.352 0,-1.868l1.869,-1.868c0.515,-0.516 1.352,-0.516 1.868,-0l0.152,0.152Z" style="fill:none;stroke:#1a1a1a;stroke-width:1.95px;"/><path d="M21.028,9.764l8.94,8.941" style="fill:none;stroke:#1a1a1a;stroke-width:1.95px;"/><path d="M24.917,6.18l3.686,-3.686c1.213,-1.212 3.182,-1.212 4.394,0l0.629,0.629c-0,-0 -1.265,-0.148 -2.379,0.967c-0.557,0.557 -4.21,4.21 -4.21,4.21c-0,-0 -2.444,-2.444 -2.272,-2.272l0.152,0.152Z" style="fill:none;stroke:#1a1a1a;stroke-width:1.95px;"/><path d="M5.86,12.443l-2.16,2.16" style="fill:none;stroke:#1a1a1a;stroke-width:1.95px;"/><path d="M9.275,13.349l-3.053,3.052" style="fill:none;stroke:#1a1a1a;stroke-width:1.95px;"/><path d="M10.181,16.764l-2.16,2.16" style="fill:none;stroke:#1a1a1a;stroke-width:1.95px;"/><path d="M24.588,28.285l-3.241,3.241" style="fill:none;stroke:#1a1a1a;stroke-width:1.95px;"/><path d="M25.306,31.888l-2.161,2.161" style="fill:none;stroke:#1a1a1a;stroke-width:1.95px;"/><path d="M27.467,34.049l-2.161,2.16" style="fill:none;stroke:#1a1a1a;stroke-width:1.95px;"/><path d="M27.673,21.001l7.735,7.735c1.213,1.213 1.213,3.182 0,4.394l-4.394,4.394c-1.212,1.213 -3.181,1.213 -4.393,0l-7.736,-7.736l8.788,-8.787Zm-17.576,-0l-8.188,-8.188c-1.212,-1.213 -1.212,-3.181 0,-4.394l4.394,-4.394c1.213,-1.212 3.182,-1.212 4.394,0l8.188,8.188l-8.788,8.788Z" style="fill:none;stroke:#1a1a1a;stroke-width:1.95px;"/><path d="M1.805,33.7c0.305,-1.224 1.905,-0.419 3.209,0.823c1.422,1.354 2.494,3.226 1.159,3.559c-1.036,0.258 -2.092,0.521 -3.015,0.751c-0.592,0.147 -1.218,-0.026 -1.649,-0.458c-0.431,-0.431 -0.605,-1.056 -0.457,-1.648c0.23,-0.927 0.494,-1.987 0.753,-3.027Z" style="fill:#1a1a1a;stroke:#1a1a1a;stroke-width:1.95px;"/></g><path d="M27.218,8.329l6.332,6.331" style="fill:none;stroke:#000;stroke-width:2px;"/></g></svg>