<?xml version="1.0" encoding="UTF-8" standalone="no"?><!DOCTYPE svg PUBLIC "-//W3C//DTD SVG 1.1//EN" "http://www.w3.org/Graphics/SVG/1.1/DTD/svg11.dtd"><svg width="100%" height="100%" viewBox="0 0 50 50" version="1.1" xmlns="http://www.w3.org/2000/svg" xmlns:xlink="http://www.w3.org/1999/xlink" xml:space="preserve" xmlns:serif="http://www.serif.com/" style="fill-rule:evenodd;clip-rule:evenodd;stroke-linejoin:round;stroke-miterlimit:2;"><path d="M0.046,37.2c0.046,-0.149 0.129,-0.289 0.247,-0.407l7.303,-7.303c0.39,-0.391 1.024,-0.391 1.414,0c0.391,0.39 0.391,1.024 0,1.414l-5.596,5.596l20.586,0c0.552,0 1,0.448 1,1c0,0.552 -0.448,1 -1,1l-20.883,0l5.893,5.893c0.391,0.39 0.391,1.024 0,1.414c-0.39,0.391 -1.024,0.391 -1.414,0l-7.303,-7.303c-0.233,-0.233 -0.327,-0.553 -0.282,-0.856c-0.004,-0.027 -0.007,-0.054 -0.009,-0.082l-0.002,-0.036l0,-0.017l0,-0.019c0.001,-0.102 0.017,-0.201 0.046,-0.294Z" style="fill:#fff;"/><path d="M0.046,12.311c0.046,-0.149 0.129,-0.289 0.247,-0.407l7.303,-7.303c0.39,-0.391 1.024,-0.391 1.414,0c0.391,0.39 0.391,1.024 0,1.414l-5.596,5.596l20.586,0c0.552,0 1,0.448 1,1c0,0.552 -0.448,1 -1,1l-20.883,0l5.893,5.893c0.391,0.39 0.391,1.024 0,1.414c-0.39,0.391 -1.024,0.391 -1.414,0l-7.303,-7.303c-0.233,-0.233 -0.327,-0.553 -0.282,-0.855c-0.004,-0.027 -0.007,-0.055 -0.009,-0.082l-0.002,-0.037l0,-0.017l0,-0.019c0.001,-0.102 0.017,-0.201 0.046,-0.294Z" style="fill:#2ad1c9;"/><path d="M49.954,37.2c-0.046,-0.149 -0.129,-0.289 -0.247,-0.407l-7.303,-7.303c-0.39,-0.391 -1.024,-0.391 -1.414,0c-0.391,0.39 -0.391,1.024 0,1.414l5.596,5.596l-20.586,0c-0.552,0 -1,0.448 -1,1c0,0.552 0.448,1 1,1l20.883,0l-5.893,5.893c-0.391,0.39 -0.391,1.024 0,1.414c0.39,0.391 1.024,0.391 1.414,0l7.303,-7.303c0.233,-0.233 0.327,-0.553 0.282,-0.856c0.004,-0.027 0.007,-0.054 0.009,-0.082l0.002,-0.036l0,-0.017l0,-0.019c-0.001,-0.102 -0.017,-0.201 -0.046,-0.294Z" style="fill:#fff;"/><path d="M49.954,12.311c-0.046,-0.149 -0.129,-0.289 -0.247,-0.407l-7.303,-7.303c-0.39,-0.391 -1.024,-0.391 -1.414,0c-0.391,0.39 -0.391,1.024 0,1.414l5.596,5.596l-20.586,0c-0.552,0 -1,0.448 -1,1c0,0.552 0.448,1 1,1l20.883,0l-5.893,5.893c-0.391,0.39 -0.391,1.024 0,1.414c0.39,0.391 1.024,0.391 1.414,0l7.303,-7.303c0.233,-0.233 0.327,-0.553 0.282,-0.855c0.004,-0.027 0.007,-0.055 0.009,-0.082l0.002,-0.037l0,-0.017l0,-0.019c-0.001,-0.102 -0.017,-0.201 -0.046,-0.294Z" style="fill:#2ad1c9;"/></svg>