<?xml version="1.0" encoding="UTF-8" standalone="no"?><!DOCTYPE svg PUBLIC "-//W3C//DTD SVG 1.1//EN" "http://www.w3.org/Graphics/SVG/1.1/DTD/svg11.dtd"><svg width="100%" height="100%" viewBox="0 0 43 41" version="1.1" xmlns="http://www.w3.org/2000/svg" xmlns:xlink="http://www.w3.org/1999/xlink" xml:space="preserve" xmlns:serif="http://www.serif.com/" style="fill-rule:evenodd;clip-rule:evenodd;stroke-linejoin:round;stroke-miterlimit:2;"><path d="M33.317,38.921l-23.551,0c-0.41,0 -0.802,-0.156 -1.089,-0.433c-1.269,-1.227 -4.878,-4.715 -6.125,-5.92c-0.276,-0.266 -0.43,-0.624 -0.43,-0.996l0,-22.411c0,-0.385 0.163,-0.755 0.453,-1.026c1.276,-1.193 4.889,-4.572 6.168,-5.769c0.292,-0.273 0.687,-0.425 1.098,-0.423c2.851,0.016 14.359,0.078 17.23,0.094c0.417,0.002 0.816,0.16 1.11,0.44c1.978,1.881 9.77,9.29 11.756,11.178c0.296,0.282 0.463,0.663 0.463,1.06l0,17.503c0,0.398 -0.168,0.78 -0.468,1.061c-1.204,1.132 -4.399,4.136 -5.566,5.233c-0.278,0.262 -0.656,0.409 -1.049,0.409Z" style="fill:#70fffc;"/></svg>