<?xml version="1.0" encoding="UTF-8" standalone="no"?><!DOCTYPE svg PUBLIC "-//W3C//DTD SVG 1.1//EN" "http://www.w3.org/Graphics/SVG/1.1/DTD/svg11.dtd"><svg width="100%" height="100%" viewBox="0 0 42 42" version="1.1" xmlns="http://www.w3.org/2000/svg" xmlns:xlink="http://www.w3.org/1999/xlink" xml:space="preserve" xmlns:serif="http://www.serif.com/" style="fill-rule:evenodd;clip-rule:evenodd;stroke-linecap:round;stroke-linejoin:round;stroke-miterlimit:1.5;"><rect x="0" y="-0" width="42" height="42" style="fill:none;"/><g><g><path d="M40.52,6.688c-0,-1.28 -1.04,-2.319 -2.32,-2.319l-31.403,-0c-1.28,-0 -2.319,1.039 -2.319,2.319l-0,4.64c-0,1.28 1.039,2.319 2.319,2.319l31.403,0c1.28,0 2.32,-1.039 2.32,-2.319l-0,-4.64Z" style="fill:#00e0d2;"/><path d="M40.52,20.365c-0,-1.28 -1.04,-2.32 -2.32,-2.32l-31.403,0c-1.28,0 -2.319,1.04 -2.319,2.32l-0,4.639c-0,1.28 1.039,2.32 2.319,2.32l31.403,-0c1.28,-0 2.32,-1.04 2.32,-2.32l-0,-4.639Z" style="fill:#00e0d2;"/><path d="M40.52,34.041c-0,-1.28 -1.04,-2.319 -2.32,-2.319l-31.403,-0c-1.28,-0 -2.319,1.039 -2.319,2.319l-0,4.639c-0,1.281 1.039,2.32 2.319,2.32l31.403,-0c1.28,-0 2.32,-1.039 2.32,-2.32l-0,-4.639Z" style="fill:#00e0d2;"/></g><rect x="7.206" y="10.278" width="24.591" height="4.398" style="fill:#1a1a1a;stroke:#1a1a1a;stroke-width:2px;"/><rect x="7.206" y="23.955" width="24.591" height="4.398" style="fill:#1a1a1a;stroke:#00e0d2;stroke-width:2px;"/><path d="M37.522,3.32c0,-1.281 -1.039,-2.32 -2.319,-2.32l-31.403,0c-1.28,0 -2.32,1.039 -2.32,2.32l0,4.639c0,1.28 1.04,2.319 2.32,2.319l31.403,0c1.28,0 2.319,-1.039 2.319,-2.319l0,-4.639Z" style="fill:none;stroke:#1a1a1a;stroke-width:2px;"/><path d="M37.522,16.996c0,-1.28 -1.039,-2.32 -2.319,-2.32l-31.403,0c-1.28,0 -2.32,1.04 -2.32,2.32l0,4.639c0,1.28 1.04,2.32 2.32,2.32l31.403,-0c1.28,-0 2.319,-1.04 2.319,-2.32l0,-4.639Z" style="fill:none;stroke:#1a1a1a;stroke-width:2px;"/><path d="M37.522,30.672c0,-1.28 -1.039,-2.319 -2.319,-2.319l-31.403,-0c-1.28,-0 -2.32,1.039 -2.32,2.319l0,4.64c0,1.28 1.04,2.319 2.32,2.319l31.403,0c1.28,0 2.319,-1.039 2.319,-2.319l0,-4.64Z" style="fill:none;stroke:#1a1a1a;stroke-width:2px;"/><circle cx="5.383" cy="5.298" r="1.904" style="fill:#00e0d2;stroke:#1a1a1a;stroke-width:2px;"/><circle cx="5.383" cy="18.975" r="1.904" style="fill:#00e0d2;stroke:#1a1a1a;stroke-width:2px;"/><circle cx="5.383" cy="32.651" r="1.904" style="fill:#00e0d2;stroke:#1a1a1a;stroke-width:2px;"/><circle cx="10.253" cy="5.298" r="1.904" style="fill:#00e0d2;stroke:#1a1a1a;stroke-width:2px;"/><circle cx="10.253" cy="18.975" r="1.904" style="fill:#00e0d2;stroke:#1a1a1a;stroke-width:2px;"/><circle cx="10.253" cy="32.651" r="1.904" style="fill:#00e0d2;stroke:#1a1a1a;stroke-width:2px;"/><path d="M24.33,5.639l9.473,0" style="fill:none;stroke:#1a1a1a;stroke-width:2px;"/><path d="M24.33,19.316l9.473,-0" style="fill:none;stroke:#1a1a1a;stroke-width:2px;"/><path d="M24.33,32.992l9.473,0" style="fill:none;stroke:#1a1a1a;stroke-width:2px;"/></g></svg>