<?xml version="1.0" encoding="UTF-8" standalone="no"?><!DOCTYPE svg PUBLIC "-//W3C//DTD SVG 1.1//EN" "http://www.w3.org/Graphics/SVG/1.1/DTD/svg11.dtd"><svg width="100%" height="100%" viewBox="0 0 42 42" version="1.1" xmlns="http://www.w3.org/2000/svg" xmlns:xlink="http://www.w3.org/1999/xlink" xml:space="preserve" xmlns:serif="http://www.serif.com/" style="fill-rule:evenodd;clip-rule:evenodd;stroke-linecap:round;stroke-linejoin:round;stroke-miterlimit:1.5;"><path d="M28.748,41.905c0.43,-0.469 0.657,-1.001 0.657,-1.543c-0,-1.703 -2.198,-3.085 -4.904,-3.085c-2.706,-0 -4.903,1.382 -4.903,3.085c-0,0.542 0.226,1.074 0.657,1.543l8.493,-0Zm-20.912,-30.188l0,-2.771c0,-2.759 2.24,-4.999 5,-4.999l23.331,-0c2.759,-0 4.999,2.24 4.999,4.999l0,23.331c0,2.76 -2.24,5 -4.999,5l-23.331,-0c-2.76,-0 -5,-2.24 -5,-5l0,-8.088l10.123,-0l0,-9.365c0,-0.566 -0.164,-1.094 -0.446,-1.539l0.013,0c-0,0 -2.363,-3.93 -3.938,-6.55c-0.291,-0.484 -0.814,-0.779 -1.378,-0.779c-0.565,-0 -1.088,0.295 -1.378,0.779l-2.996,4.982Zm13.972,12.472l-0,-10.124c-0,-1.587 1.288,-2.875 2.875,-2.875l5.75,-0c1.587,-0 2.875,1.288 2.875,2.875l0,10.124l-11.5,-0Z" style="fill:#00e0d2;"/><rect x="0" y="0" width="42" height="42" style="fill:none;"/><g><path d="M15.075,9.209c0.601,1 -0.972,1.52 -2.638,1.561c-1.817,0.045 -3.743,-0.479 -3.087,-1.571c0.509,-0.846 1.028,-1.71 1.482,-2.464c0.29,-0.484 0.813,-0.779 1.378,-0.779c0.564,-0 1.087,0.295 1.378,0.779c0.455,0.757 0.976,1.624 1.487,2.474Z" style="fill:#1a1a1a;stroke:#1a1a1a;stroke-width:1.81px;"/><path d="M17.959,14.824l0,9.365l-11.5,-0l-0,-9.365c-0,-0.566 0.163,-1.094 0.446,-1.539l-0.012,0c0,0 2.363,-3.93 3.939,-6.55c0.29,-0.484 0.813,-0.779 1.378,-0.779c0.564,-0 1.087,0.295 1.378,0.779c1.575,2.62 3.938,6.55 3.938,6.55l-0.013,0c0.282,0.445 0.446,0.973 0.446,1.539Z" style="fill:none;stroke:#1a1a1a;stroke-width:1.81px;"/></g><path d="M28.593,21.441l4.241,-0" style="fill:none;stroke:#1a1a1a;stroke-width:1.81px;"/><path d="M30.481,18.613l2.827,0" style="fill:none;stroke:#1a1a1a;stroke-width:1.81px;"/><path d="M30.481,15.785l2.827,0" style="fill:none;stroke:#1a1a1a;stroke-width:1.81px;"/><path d="M21.808,24.189l-0,-10.124c-0,-1.587 1.288,-2.875 2.875,-2.875l5.75,-0c1.587,-0 2.875,1.288 2.875,2.875l0,10.124l-11.5,-0Z" style="fill:none;stroke:#1a1a1a;stroke-width:1.81px;"/><g><path d="M36.263,6.024c-0,-2.759 -2.241,-5 -5,-5l-23.331,0c-2.759,0 -4.999,2.241 -4.999,5l-0,23.331c-0,2.759 2.24,4.999 4.999,4.999l23.331,0c2.759,0 5,-2.24 5,-4.999l-0,-23.331Z" style="fill:none;stroke:#1a1a1a;stroke-width:2px;"/><path d="M2.99,24.496l32.859,0" style="fill:none;stroke:#1a1a1a;stroke-width:2px;"/><circle cx="29.222" cy="29.297" r="1.726" style="fill:#1a1a1a;"/></g><path d="M23.844,38.982c0.431,-0.469 0.657,-1.001 0.657,-1.542c0,-1.703 -2.197,-3.086 -4.903,-3.086c-2.707,0 -4.904,1.383 -4.904,3.086c0,0.541 0.227,1.073 0.657,1.542l8.493,0Z" style="fill:none;stroke:#1a1a1a;stroke-width:2px;stroke-linecap:butt;stroke-miterlimit:2;"/></svg>