<?xml version="1.0" encoding="UTF-8" standalone="no"?><!DOCTYPE svg PUBLIC "-//W3C//DTD SVG 1.1//EN" "http://www.w3.org/Graphics/SVG/1.1/DTD/svg11.dtd"><svg width="100%" height="100%" viewBox="0 0 42 42" version="1.1" xmlns="http://www.w3.org/2000/svg" xmlns:xlink="http://www.w3.org/1999/xlink" xml:space="preserve" xmlns:serif="http://www.serif.com/" style="fill-rule:evenodd;clip-rule:evenodd;stroke-linecap:round;stroke-linejoin:round;stroke-miterlimit:1.5;"><rect x="0" y="0" width="42" height="42" style="fill:none;"/><g><path d="M14.217,9.78l-0,-1.436c-0,-0.886 0.718,-1.605 1.604,-1.605l7.45,0c0.885,0 1.604,0.719 1.604,1.605l0,1.436l-10.658,0Z" style="fill:none;stroke:#1a1a1a;stroke-width:2px;"/><path d="M35.335,12.444c0,-1.47 -1.151,-2.664 -2.57,-2.664l-26.681,0c-1.418,0 -2.569,1.194 -2.569,2.664l-0.582,5.328c-0,1.47 1.193,2.663 2.663,2.663l27.657,0c1.47,0 2.664,-1.193 2.664,-2.663l-0.582,-5.328Z" style="fill:none;stroke:#1a1a1a;stroke-width:2px;"/><path d="M14.217,18.944c-0,-0.607 -0.493,-1.1 -1.1,-1.1l-2.2,-0c-0.607,-0 -1.099,0.493 -1.099,1.1l-0,5.326c-0,0.607 0.492,1.1 1.099,1.1l2.2,0c0.607,0 1.1,-0.493 1.1,-1.1l-0,-5.326Z" style="fill:none;stroke:#1a1a1a;stroke-width:2px;"/><path d="M7.742,23.13c-1.002,-0.382 -1.715,-1.353 -1.715,-2.489l0.582,-5.328c-0,-1.47 1.151,-2.663 2.57,-2.663l26.681,-0c1.418,-0 2.569,1.193 2.569,2.663l0.582,5.328c0,1.136 -0.712,2.107 -1.714,2.489c-0,0 -0.655,11.396 -0.655,11.396c0,1.967 -1.504,3.565 -3.358,3.565l-21.53,-0c-1.853,-0 -3.358,-1.598 -3.358,-3.565l-0.654,-11.396Zm20.755,-4.186c-0,-0.607 -0.493,-1.1 -1.1,-1.1l-2.199,-0c-0.607,-0 -1.1,0.493 -1.1,1.1l-0,5.326c-0,0.607 0.493,1.1 1.1,1.1l2.199,0c0.607,0 1.1,-0.493 1.1,-1.1l-0,-5.326Zm-14.28,-0c-0,-0.607 -0.493,-1.1 -1.1,-1.1l-2.2,-0c-0.607,-0 -1.099,0.493 -1.099,1.1l-0,5.326c-0,0.607 0.492,1.1 1.099,1.1l2.2,0c0.607,0 1.1,-0.493 1.1,-1.1l-0,-5.326Zm-5.559,4.36l0.033,0l-0.033,0Zm27.821,-0.003l-0.019,0.001l0.019,-0.001Zm0.065,-0.004l-0.018,0.002l0.018,-0.002Zm0.033,-0.002l-0.019,0.001l0.019,-0.001Zm-28.182,-0.007l0.021,0.002l-0.021,-0.002Zm-0.04,-0.005l0.028,0.004l-0.028,-0.004Zm-0.067,-0.009l0.02,0.003l-0.02,-0.003Zm28.462,0l-0.02,0.003l0.02,-0.003Zm0.032,-0.005l-0.018,0.003l0.018,-0.003Zm-28.525,0l0.018,0.003l-0.018,-0.003Zm28.556,-0.005l-0.017,0.003l0.017,-0.003Zm-28.619,-0.006l0.017,0.003l-0.017,-0.003Zm28.681,-0.006l-0.016,0.003l0.016,-0.003Zm-28.712,0l0.016,0.003l-0.016,-0.003Zm28.774,-0.013l-0.015,0.003l0.015,-0.003Zm-28.867,-0.007l0.016,0.003l-0.016,-0.003Zm28.973,-0.019l-0.013,0.003l0.013,-0.003Zm0.03,-0.009l-0.013,0.004l0.013,-0.004Zm0.03,-0.008l-0.013,0.003l0.013,-0.003Zm-29.167,-0l0.013,0.003l-0.013,-0.003Zm-0.03,-0.009l0.013,0.004l-0.013,-0.004Zm29.227,-0l-0.013,0.004l0.013,-0.004Zm0.029,-0.01l-0.012,0.004l0.012,-0.004Zm-29.315,-0.009l0.012,0.004l-0.012,-0.004Zm-0.085,-0.03l0.009,0.003l-0.009,-0.003Z" style="fill:#00e0d2;"/><path d="M28.497,18.944c-0,-0.607 -0.493,-1.1 -1.1,-1.1l-2.199,-0c-0.607,-0 -1.1,0.493 -1.1,1.1l-0,5.326c-0,0.607 0.493,1.1 1.1,1.1l2.199,0c0.607,0 1.1,-0.493 1.1,-1.1l-0,-5.326Z" style="fill:none;stroke:#1a1a1a;stroke-width:2px;"/><path d="M9.818,20.435l-4.222,0c-1.47,0 -2.663,-1.193 -2.663,-2.663l0.582,-5.328c-0,-1.47 1.151,-2.664 2.569,-2.664l26.681,0c1.419,0 2.57,1.194 2.57,2.664l0.582,5.328c0,1.47 -1.194,2.663 -2.664,2.663l-19.036,0l-0,-1.491c-0,-0.607 -0.493,-1.1 -1.1,-1.1l-2.2,-0c-0.607,-0 -1.099,0.493 -1.099,1.1l-0,1.491Z" style="fill:none;stroke:#1a1a1a;stroke-width:2px;"/><path d="M14.217,20.435l19.036,0c0.334,0 0.654,-0.061 0.949,-0.174l-0.654,11.396c0,1.967 -1.505,3.564 -3.358,3.564l-21.53,0c-1.854,0 -3.358,-1.597 -3.358,-3.564l-0.655,-11.396c0.295,0.113 0.615,0.174 0.949,0.174l4.222,0l-0,3.835c-0,0.607 0.492,1.1 1.099,1.1l2.2,0c0.607,0 1.1,-0.493 1.1,-1.1l-0,-3.835Z" style="fill:none;stroke:#1a1a1a;stroke-width:2px;"/></g></svg>